<svg width="96" height="40" viewBox="0 0 96 40" fill="none" xmlns="http://www.w3.org/2000/svg">
<path d="M15.3835 17.4346H12.196C12.1051 16.9119 11.9375 16.4488 11.6932 16.0454C11.4489 15.6363 11.1449 15.2897 10.7813 15.0056C10.4176 14.7215 10.0028 14.5085 9.53693 14.3664C9.0767 14.2187 8.57955 14.1448 8.04545 14.1448C7.09659 14.1448 6.25568 14.3835 5.52273 14.8608C4.78977 15.3323 4.21591 16.0255 3.80114 16.9403C3.38636 17.8494 3.17898 18.9602 3.17898 20.2727C3.17898 21.6079 3.38636 22.7329 3.80114 23.6477C4.22159 24.5568 4.79545 25.2443 5.52273 25.7102C6.25568 26.1704 7.09375 26.4005 8.03693 26.4005C8.55966 26.4005 9.0483 26.3323 9.50284 26.196C9.96307 26.0539 10.375 25.8465 10.7386 25.5738C11.108 25.3011 11.4176 24.9659 11.6676 24.5681C11.9233 24.1704 12.0994 23.7159 12.196 23.2045L15.3835 23.2215C15.2642 24.0511 15.0057 24.8295 14.608 25.5568C14.2159 26.284 13.7017 26.9261 13.0653 27.4829C12.429 28.034 11.6847 28.4659 10.8324 28.7784C9.98011 29.0852 9.03409 29.2386 7.99432 29.2386C6.46023 29.2386 5.09091 28.8835 3.88636 28.1733C2.68182 27.463 1.73295 26.4375 1.03977 25.0965C0.346591 23.7556 0 22.1477 0 20.2727C0 18.392 0.349432 16.784 1.0483 15.4488C1.74716 14.1079 2.69886 13.0823 3.90341 12.3721C5.10795 11.6619 6.47159 11.3068 7.99432 11.3068C8.96591 11.3068 9.86932 11.4431 10.7045 11.7159C11.5398 11.9886 12.2841 12.3892 12.9375 12.9176C13.5909 13.4403 14.1278 14.0823 14.5483 14.8437C14.9744 15.5994 15.2528 16.463 15.3835 17.4346Z" fill="white"/>
<path d="M21.9098 29.2642C21.0803 29.2642 20.3331 29.1164 19.6683 28.821C19.0092 28.5198 18.4865 28.0767 18.1001 27.4914C17.7195 26.9062 17.5291 26.1846 17.5291 25.3267C17.5291 24.588 17.6655 23.9772 17.9382 23.4943C18.2109 23.0113 18.5831 22.625 19.0547 22.3352C19.5263 22.0454 20.0575 21.8267 20.6484 21.6789C21.245 21.5255 21.8615 21.4147 22.4979 21.3465C23.2649 21.267 23.8871 21.196 24.3643 21.1335C24.8416 21.0653 25.1882 20.963 25.4041 20.8267C25.6257 20.6846 25.7365 20.4659 25.7365 20.1704V20.1193C25.7365 19.4772 25.5462 18.9801 25.1655 18.6278C24.7848 18.2755 24.2365 18.0994 23.5206 18.0994C22.7649 18.0994 22.1655 18.2642 21.7223 18.5937C21.2848 18.9233 20.9893 19.3125 20.8359 19.7613L17.9553 19.3522C18.1825 18.5568 18.5575 17.892 19.0803 17.3579C19.603 16.8181 20.2422 16.4147 20.9979 16.1477C21.7535 15.875 22.5888 15.7386 23.5035 15.7386C24.1342 15.7386 24.7621 15.8125 25.3871 15.9602C26.0121 16.1079 26.5831 16.3522 27.1001 16.6931C27.6172 17.0284 28.032 17.4858 28.3445 18.0653C28.6626 18.6448 28.8217 19.3693 28.8217 20.2386V29H25.8558V27.2017H25.7535C25.566 27.5653 25.3018 27.9062 24.9609 28.2244C24.6257 28.5369 24.2024 28.7897 23.691 28.9829C23.1854 29.1704 22.5916 29.2642 21.9098 29.2642ZM22.7109 26.9971C23.3303 26.9971 23.8672 26.875 24.3217 26.6306C24.7763 26.3806 25.1257 26.0511 25.37 25.642C25.62 25.2329 25.745 24.7869 25.745 24.3039V22.7613C25.6484 22.8409 25.4837 22.9147 25.2507 22.9829C25.0234 23.0511 24.7678 23.1108 24.4837 23.1619C24.1996 23.213 23.9183 23.2585 23.6399 23.2983C23.3615 23.338 23.12 23.3721 22.9155 23.4005C22.4553 23.463 22.0433 23.5653 21.6797 23.7073C21.3161 23.8494 21.0291 24.0483 20.8189 24.3039C20.6087 24.5539 20.5035 24.8778 20.5035 25.2755C20.5035 25.8437 20.7109 26.2727 21.1257 26.5625C21.5405 26.8522 22.0689 26.9971 22.7109 26.9971Z" fill="white"/>
<path d="M31.924 29V15.909H34.9155V18.0909H35.0518C35.2905 17.3352 35.6996 16.7528 36.2791 16.3437C36.8643 15.9289 37.532 15.7215 38.282 15.7215C38.4524 15.7215 38.6428 15.7301 38.853 15.7471C39.0689 15.7585 39.2479 15.7784 39.3899 15.8068V18.6448C39.2592 18.5994 39.0518 18.5596 38.7678 18.5255C38.4893 18.4858 38.2195 18.4659 37.9581 18.4659C37.3956 18.4659 36.8899 18.588 36.4411 18.8323C35.9979 19.071 35.6484 19.4034 35.3928 19.8295C35.1371 20.2556 35.0092 20.7471 35.0092 21.3039V29H31.924Z" fill="white"/>
<path d="M48.6797 15.909V18.2954H41.1541V15.909H48.6797ZM43.0121 12.7727H46.0973V25.0625C46.0973 25.4772 46.1598 25.7954 46.2848 26.017C46.4155 26.2329 46.5859 26.3806 46.7962 26.4602C47.0064 26.5397 47.2393 26.5795 47.495 26.5795C47.6882 26.5795 47.8643 26.5653 48.0234 26.5369C48.1882 26.5085 48.3132 26.4829 48.3984 26.4602L48.9183 28.8721C48.7536 28.9289 48.5178 28.9914 48.2109 29.0596C47.9098 29.1278 47.5405 29.1676 47.103 29.1789C46.3303 29.2017 45.6342 29.0852 45.0149 28.8295C44.3956 28.5681 43.9041 28.1647 43.5405 27.6193C43.1825 27.0738 43.0064 26.392 43.0121 25.5738V12.7727Z" fill="white"/>
<path d="M51.0895 29V27.0397L57.8395 18.5767V18.4659H51.3111V15.909H61.6151V18.0142L55.1889 26.3323V26.4431H61.8367V29H51.0895Z" fill="white"/>
<path d="M64.7365 29V15.909H67.8217V29H64.7365ZM66.2876 14.0511C65.799 14.0511 65.3785 13.8892 65.0263 13.5653C64.674 13.2358 64.4979 12.8409 64.4979 12.3806C64.4979 11.9147 64.674 11.5198 65.0263 11.196C65.3785 10.8664 65.799 10.7017 66.2876 10.7017C66.782 10.7017 67.2024 10.8664 67.549 11.196C67.9013 11.5198 68.0774 11.9147 68.0774 12.3806C68.0774 12.8409 67.9013 13.2358 67.549 13.5653C67.2024 13.8892 66.782 14.0511 66.2876 14.0511Z" fill="white"/>
<path d="M74.0795 11.5454V29H70.9943V11.5454H74.0795Z" fill="white"/>
<path d="M80.3374 11.5454V29H77.2521V11.5454H80.3374Z" fill="white"/>
<path d="M87.277 29.2642C86.4474 29.2642 85.7003 29.1164 85.0355 28.821C84.3764 28.5198 83.8537 28.0767 83.4673 27.4914C83.0866 26.9062 82.8963 26.1846 82.8963 25.3267C82.8963 24.588 83.0327 23.9772 83.3054 23.4943C83.5781 23.0113 83.9503 22.625 84.4219 22.3352C84.8935 22.0454 85.4247 21.8267 86.0156 21.6789C86.6122 21.5255 87.2287 21.4147 87.8651 21.3465C88.6321 21.267 89.2543 21.196 89.7315 21.1335C90.2088 21.0653 90.5554 20.963 90.7713 20.8267C90.9929 20.6846 91.1037 20.4659 91.1037 20.1704V20.1193C91.1037 19.4772 90.9134 18.9801 90.5327 18.6278C90.152 18.2755 89.6037 18.0994 88.8878 18.0994C88.1321 18.0994 87.5327 18.2642 87.0895 18.5937C86.652 18.9233 86.3565 19.3125 86.2031 19.7613L83.3224 19.3522C83.5497 18.5568 83.9247 17.892 84.4474 17.3579C84.9702 16.8181 85.6094 16.4147 86.3651 16.1477C87.1207 15.875 87.956 15.7386 88.8707 15.7386C89.5014 15.7386 90.1293 15.8125 90.7543 15.9602C91.3793 16.1079 91.9503 16.3522 92.4673 16.6931C92.9844 17.0284 93.3991 17.4858 93.7116 18.0653C94.0298 18.6448 94.1889 19.3693 94.1889 20.2386V29H91.223V27.2017H91.1207C90.9332 27.5653 90.669 27.9062 90.3281 28.2244C89.9929 28.5369 89.5696 28.7897 89.0582 28.9829C88.5526 29.1704 87.9588 29.2642 87.277 29.2642ZM88.0781 26.9971C88.6974 26.9971 89.2344 26.875 89.6889 26.6306C90.1435 26.3806 90.4929 26.0511 90.7372 25.642C90.9872 25.2329 91.1122 24.7869 91.1122 24.3039V22.7613C91.0156 22.8409 90.8509 22.9147 90.6179 22.9829C90.3906 23.0511 90.1349 23.1108 89.8509 23.1619C89.5668 23.213 89.2855 23.2585 89.0071 23.2983C88.7287 23.338 88.4872 23.3721 88.2827 23.4005C87.8224 23.463 87.4105 23.5653 87.0469 23.7073C86.6832 23.8494 86.3963 24.0483 86.1861 24.3039C85.9758 24.5539 85.8707 24.8778 85.8707 25.2755C85.8707 25.8437 86.0781 26.2727 86.4929 26.5625C86.9077 26.8522 87.4361 26.9971 88.0781 26.9971Z" fill="white"/>
</svg>
